<mxfile host="65bd71144e">
    <diagram id="Ai20vQuifcnHqPldlvTL" name="Page-1">
        <mxGraphModel dx="1000" dy="463" grid="1" gridSize="10" guides="1" tooltips="1" connect="1" arrows="1" fold="1" page="1" pageScale="1" pageWidth="850" pageHeight="1400" math="0" shadow="0">
            <root>
                <mxCell id="0"/>
                <mxCell id="1" parent="0"/>
                <mxCell id="4" value="" style="rounded=0;whiteSpace=wrap;html=1;" parent="1" vertex="1">
                    <mxGeometry x="40" width="760" height="480" as="geometry"/>
                </mxCell>
                <mxCell id="2" value="nav_bar" style="rounded=1;whiteSpace=wrap;html=1;verticalAlign=top;" parent="1" vertex="1">
                    <mxGeometry x="80" y="20" width="680" height="80" as="geometry"/>
                </mxCell>
                <mxCell id="3" value="id: main-dropdown" style="rounded=1;whiteSpace=wrap;html=1;" parent="1" vertex="1">
                    <mxGeometry x="540" y="30" width="180" height="60" as="geometry"/>
                </mxCell>
                <mxCell id="5" value="content" style="rounded=1;whiteSpace=wrap;html=1;verticalAlign=top;" parent="1" vertex="1">
                    <mxGeometry x="80" y="110" width="680" height="290" as="geometry"/>
                </mxCell>
                <mxCell id="11" value="about_us" style="rounded=1;whiteSpace=wrap;html=1;verticalAlign=top;" parent="1" vertex="1">
                    <mxGeometry x="80" y="410" width="680" height="60" as="geometry"/>
                </mxCell>
                <mxCell id="12" value="id: map-placeholder" style="rounded=1;whiteSpace=wrap;html=1;verticalAlign=top;" parent="1" vertex="1">
                    <mxGeometry x="100" y="150" width="430" height="130" as="geometry"/>
                </mxCell>
                <mxCell id="13" value="id: text-below-map-palceholder" style="rounded=1;whiteSpace=wrap;html=1;verticalAlign=top;" parent="1" vertex="1">
                    <mxGeometry x="100" y="290" width="430" height="90" as="geometry"/>
                </mxCell>
                <mxCell id="14" value="id: filter-placehlder" style="rounded=1;whiteSpace=wrap;html=1;verticalAlign=top;" parent="1" vertex="1">
                    <mxGeometry x="540" y="150" width="180" height="130" as="geometry"/>
                </mxCell>
                <mxCell id="15" value="id: mini-graph-placeholder" style="rounded=1;whiteSpace=wrap;html=1;verticalAlign=top;" parent="1" vertex="1">
                    <mxGeometry x="540" y="290" width="180" height="90" as="geometry"/>
                </mxCell>
                <mxCell id="16" value="id: main-dropdown" style="rounded=1;whiteSpace=wrap;html=1;" parent="1" vertex="1">
                    <mxGeometry x="170" y="490" width="160" height="40" as="geometry"/>
                </mxCell>
                <mxCell id="17" value="id: state-data-visualization" style="rounded=1;whiteSpace=wrap;html=1;" parent="1" vertex="1">
                    <mxGeometry x="40" y="550" width="160" height="80" as="geometry"/>
                </mxCell>
                <mxCell id="18" value="id: policies-visualization" style="rounded=1;whiteSpace=wrap;html=1;" parent="1" vertex="1">
                    <mxGeometry x="40" y="650" width="160" height="80" as="geometry"/>
                </mxCell>
                <mxCell id="20" value="" style="endArrow=classic;html=1;exitX=1;exitY=0.5;exitDx=0;exitDy=0;" parent="1" source="17" edge="1">
                    <mxGeometry width="50" height="50" relative="1" as="geometry">
                        <mxPoint x="210" y="590" as="sourcePoint"/>
                        <mxPoint x="400" y="640" as="targetPoint"/>
                        <Array as="points">
                            <mxPoint x="240" y="590"/>
                            <mxPoint x="240" y="640"/>
                        </Array>
                    </mxGeometry>
                </mxCell>
                <mxCell id="21" value="id: map-placeholder" style="rounded=1;whiteSpace=wrap;html=1;" parent="1" vertex="1">
                    <mxGeometry x="280" y="560" width="120" height="160" as="geometry"/>
                </mxCell>
                <mxCell id="22" value="" style="endArrow=classic;html=1;entryX=0;entryY=0.5;entryDx=0;entryDy=0;startArrow=none;" parent="1" target="21" edge="1" source="32">
                    <mxGeometry width="50" height="50" relative="1" as="geometry">
                        <mxPoint x="200" y="689.41" as="sourcePoint"/>
                        <mxPoint x="320" y="689.41" as="targetPoint"/>
                        <Array as="points">
                            <mxPoint x="240" y="640"/>
                        </Array>
                    </mxGeometry>
                </mxCell>
                <mxCell id="23" value="" style="endArrow=classic;html=1;exitX=0.5;exitY=1;exitDx=0;exitDy=0;" parent="1" source="16" edge="1">
                    <mxGeometry width="50" height="50" relative="1" as="geometry">
                        <mxPoint x="330" y="650" as="sourcePoint"/>
                        <mxPoint x="250" y="630" as="targetPoint"/>
                    </mxGeometry>
                </mxCell>
                <mxCell id="31" value="id: download-btn-placeholder" style="rounded=1;whiteSpace=wrap;html=1;verticalAlign=top;" vertex="1" parent="1">
                    <mxGeometry x="560" y="420" width="180" height="40" as="geometry"/>
                </mxCell>
                <mxCell id="35" value="" style="endArrow=none;html=1;" edge="1" parent="1">
                    <mxGeometry width="50" height="50" relative="1" as="geometry">
                        <mxPoint x="200" y="689.4099999999999" as="sourcePoint"/>
                        <mxPoint x="240" y="640" as="targetPoint"/>
                        <Array as="points">
                            <mxPoint x="240" y="690"/>
                        </Array>
                    </mxGeometry>
                </mxCell>
                <mxCell id="32" value="or" style="rounded=1;whiteSpace=wrap;html=1;" vertex="1" parent="1">
                    <mxGeometry x="235" y="630" width="30" height="20" as="geometry"/>
                </mxCell>
                <mxCell id="36" value="id: main-dropdown" style="rounded=1;whiteSpace=wrap;html=1;" vertex="1" parent="1">
                    <mxGeometry x="570" y="490" width="160" height="40" as="geometry"/>
                </mxCell>
                <mxCell id="37" value="id: year-filter&lt;br&gt;id: month-filter&lt;br&gt;id: indicator-filter" style="rounded=1;whiteSpace=wrap;html=1;" vertex="1" parent="1">
                    <mxGeometry x="440" y="550" width="160" height="80" as="geometry"/>
                </mxCell>
                <mxCell id="38" value="id: protection-type-dropdown&lt;br&gt;id: policy-name-dropdown" style="rounded=1;whiteSpace=wrap;html=1;" vertex="1" parent="1">
                    <mxGeometry x="440" y="650" width="160" height="80" as="geometry"/>
                </mxCell>
                <mxCell id="39" value="" style="endArrow=classic;html=1;exitX=1;exitY=0.5;exitDx=0;exitDy=0;" edge="1" parent="1" source="37">
                    <mxGeometry width="50" height="50" relative="1" as="geometry">
                        <mxPoint x="610" y="590" as="sourcePoint"/>
                        <mxPoint x="800" y="640" as="targetPoint"/>
                        <Array as="points">
                            <mxPoint x="640" y="590"/>
                            <mxPoint x="640" y="640"/>
                        </Array>
                    </mxGeometry>
                </mxCell>
                <mxCell id="40" value="id: filter-placeholder" style="rounded=1;whiteSpace=wrap;html=1;" vertex="1" parent="1">
                    <mxGeometry x="680" y="560" width="120" height="160" as="geometry"/>
                </mxCell>
                <mxCell id="41" value="" style="endArrow=classic;html=1;entryX=0;entryY=0.5;entryDx=0;entryDy=0;startArrow=none;" edge="1" parent="1" source="44" target="40">
                    <mxGeometry width="50" height="50" relative="1" as="geometry">
                        <mxPoint x="600" y="689.41" as="sourcePoint"/>
                        <mxPoint x="720" y="689.41" as="targetPoint"/>
                        <Array as="points">
                            <mxPoint x="640" y="640"/>
                        </Array>
                    </mxGeometry>
                </mxCell>
                <mxCell id="42" value="" style="endArrow=classic;html=1;exitX=0.5;exitY=1;exitDx=0;exitDy=0;" edge="1" parent="1" source="36">
                    <mxGeometry width="50" height="50" relative="1" as="geometry">
                        <mxPoint x="730" y="650" as="sourcePoint"/>
                        <mxPoint x="650" y="630" as="targetPoint"/>
                    </mxGeometry>
                </mxCell>
                <mxCell id="43" value="" style="endArrow=none;html=1;" edge="1" parent="1">
                    <mxGeometry width="50" height="50" relative="1" as="geometry">
                        <mxPoint x="600" y="689.4099999999999" as="sourcePoint"/>
                        <mxPoint x="640" y="640" as="targetPoint"/>
                        <Array as="points">
                            <mxPoint x="640" y="690"/>
                        </Array>
                    </mxGeometry>
                </mxCell>
                <mxCell id="44" value="or" style="rounded=1;whiteSpace=wrap;html=1;" vertex="1" parent="1">
                    <mxGeometry x="635" y="630" width="30" height="20" as="geometry"/>
                </mxCell>
                <mxCell id="45" value="id: main-dropdown" style="rounded=1;whiteSpace=wrap;html=1;" vertex="1" parent="1">
                    <mxGeometry x="170" y="740" width="160" height="40" as="geometry"/>
                </mxCell>
                <mxCell id="46" value="description" style="rounded=1;whiteSpace=wrap;html=1;" vertex="1" parent="1">
                    <mxGeometry x="40" y="800" width="160" height="80" as="geometry"/>
                </mxCell>
                <mxCell id="47" value="None" style="rounded=1;whiteSpace=wrap;html=1;" vertex="1" parent="1">
                    <mxGeometry x="40" y="900" width="160" height="80" as="geometry"/>
                </mxCell>
                <mxCell id="48" value="" style="endArrow=classic;html=1;exitX=1;exitY=0.5;exitDx=0;exitDy=0;" edge="1" parent="1" source="46">
                    <mxGeometry width="50" height="50" relative="1" as="geometry">
                        <mxPoint x="210" y="840" as="sourcePoint"/>
                        <mxPoint x="400" y="890" as="targetPoint"/>
                        <Array as="points">
                            <mxPoint x="240" y="840"/>
                            <mxPoint x="240" y="890"/>
                        </Array>
                    </mxGeometry>
                </mxCell>
                <mxCell id="49" value="id: text-below-map-placeholder" style="rounded=1;whiteSpace=wrap;html=1;" vertex="1" parent="1">
                    <mxGeometry x="280" y="810" width="120" height="160" as="geometry"/>
                </mxCell>
                <mxCell id="50" value="" style="endArrow=classic;html=1;entryX=0;entryY=0.5;entryDx=0;entryDy=0;startArrow=none;" edge="1" parent="1" source="53" target="49">
                    <mxGeometry width="50" height="50" relative="1" as="geometry">
                        <mxPoint x="200" y="939.41" as="sourcePoint"/>
                        <mxPoint x="320" y="939.41" as="targetPoint"/>
                        <Array as="points">
                            <mxPoint x="240" y="890"/>
                        </Array>
                    </mxGeometry>
                </mxCell>
                <mxCell id="51" value="" style="endArrow=classic;html=1;exitX=0.5;exitY=1;exitDx=0;exitDy=0;" edge="1" parent="1" source="45">
                    <mxGeometry width="50" height="50" relative="1" as="geometry">
                        <mxPoint x="330" y="900" as="sourcePoint"/>
                        <mxPoint x="250" y="880" as="targetPoint"/>
                    </mxGeometry>
                </mxCell>
                <mxCell id="52" value="" style="endArrow=none;html=1;" edge="1" parent="1">
                    <mxGeometry width="50" height="50" relative="1" as="geometry">
                        <mxPoint x="200" y="939.4099999999999" as="sourcePoint"/>
                        <mxPoint x="240" y="890" as="targetPoint"/>
                        <Array as="points">
                            <mxPoint x="240" y="940"/>
                        </Array>
                    </mxGeometry>
                </mxCell>
                <mxCell id="53" value="or" style="rounded=1;whiteSpace=wrap;html=1;" vertex="1" parent="1">
                    <mxGeometry x="235" y="880" width="30" height="20" as="geometry"/>
                </mxCell>
                <mxCell id="54" value="id: main-dropdown" style="rounded=1;whiteSpace=wrap;html=1;" vertex="1" parent="1">
                    <mxGeometry x="560" y="740" width="160" height="40" as="geometry"/>
                </mxCell>
                <mxCell id="55" value="id: bar-graph-visualization" style="rounded=1;whiteSpace=wrap;html=1;" vertex="1" parent="1">
                    <mxGeometry x="430" y="800" width="160" height="80" as="geometry"/>
                </mxCell>
                <mxCell id="56" value="id: policy_description" style="rounded=1;whiteSpace=wrap;html=1;" vertex="1" parent="1">
                    <mxGeometry x="430" y="900" width="160" height="80" as="geometry"/>
                </mxCell>
                <mxCell id="57" value="" style="endArrow=classic;html=1;exitX=1;exitY=0.5;exitDx=0;exitDy=0;" edge="1" parent="1" source="55">
                    <mxGeometry width="50" height="50" relative="1" as="geometry">
                        <mxPoint x="600" y="840" as="sourcePoint"/>
                        <mxPoint x="790" y="890" as="targetPoint"/>
                        <Array as="points">
                            <mxPoint x="630" y="840"/>
                            <mxPoint x="630" y="890"/>
                        </Array>
                    </mxGeometry>
                </mxCell>
                <mxCell id="58" value="id: mini-graph-placeholder" style="rounded=1;whiteSpace=wrap;html=1;" vertex="1" parent="1">
                    <mxGeometry x="670" y="810" width="120" height="160" as="geometry"/>
                </mxCell>
                <mxCell id="59" value="" style="endArrow=classic;html=1;entryX=0;entryY=0.5;entryDx=0;entryDy=0;startArrow=none;" edge="1" parent="1" source="62" target="58">
                    <mxGeometry width="50" height="50" relative="1" as="geometry">
                        <mxPoint x="590" y="939.41" as="sourcePoint"/>
                        <mxPoint x="710" y="939.41" as="targetPoint"/>
                        <Array as="points">
                            <mxPoint x="630" y="890"/>
                        </Array>
                    </mxGeometry>
                </mxCell>
                <mxCell id="60" value="" style="endArrow=classic;html=1;exitX=0.5;exitY=1;exitDx=0;exitDy=0;" edge="1" parent="1" source="54">
                    <mxGeometry width="50" height="50" relative="1" as="geometry">
                        <mxPoint x="720" y="900" as="sourcePoint"/>
                        <mxPoint x="640" y="880" as="targetPoint"/>
                    </mxGeometry>
                </mxCell>
                <mxCell id="61" value="" style="endArrow=none;html=1;" edge="1" parent="1">
                    <mxGeometry width="50" height="50" relative="1" as="geometry">
                        <mxPoint x="590" y="939.4099999999999" as="sourcePoint"/>
                        <mxPoint x="630" y="890" as="targetPoint"/>
                        <Array as="points">
                            <mxPoint x="630" y="940"/>
                        </Array>
                    </mxGeometry>
                </mxCell>
                <mxCell id="62" value="or" style="rounded=1;whiteSpace=wrap;html=1;" vertex="1" parent="1">
                    <mxGeometry x="625" y="880" width="30" height="20" as="geometry"/>
                </mxCell>
                <mxCell id="63" value="id: main-dropdown" style="rounded=1;whiteSpace=wrap;html=1;" vertex="1" parent="1">
                    <mxGeometry x="560" y="1000" width="160" height="40" as="geometry"/>
                </mxCell>
                <mxCell id="64" value="id: discon-download-data-btn" style="rounded=1;whiteSpace=wrap;html=1;" vertex="1" parent="1">
                    <mxGeometry x="430" y="1060" width="160" height="80" as="geometry"/>
                </mxCell>
                <mxCell id="65" value="id: policy-download-data-btn" style="rounded=1;whiteSpace=wrap;html=1;" vertex="1" parent="1">
                    <mxGeometry x="430" y="1160" width="160" height="80" as="geometry"/>
                </mxCell>
                <mxCell id="66" value="" style="endArrow=classic;html=1;exitX=1;exitY=0.5;exitDx=0;exitDy=0;" edge="1" parent="1" source="64">
                    <mxGeometry width="50" height="50" relative="1" as="geometry">
                        <mxPoint x="600" y="1100" as="sourcePoint"/>
                        <mxPoint x="790" y="1150" as="targetPoint"/>
                        <Array as="points">
                            <mxPoint x="630" y="1100"/>
                            <mxPoint x="630" y="1150"/>
                        </Array>
                    </mxGeometry>
                </mxCell>
                <mxCell id="67" value="id: download-btn-placeholder" style="rounded=1;whiteSpace=wrap;html=1;" vertex="1" parent="1">
                    <mxGeometry x="670" y="1070" width="120" height="160" as="geometry"/>
                </mxCell>
                <mxCell id="68" value="" style="endArrow=classic;html=1;entryX=0;entryY=0.5;entryDx=0;entryDy=0;startArrow=none;" edge="1" parent="1" source="71" target="67">
                    <mxGeometry width="50" height="50" relative="1" as="geometry">
                        <mxPoint x="590" y="1199.4099999999999" as="sourcePoint"/>
                        <mxPoint x="710" y="1199.4099999999999" as="targetPoint"/>
                        <Array as="points">
                            <mxPoint x="630" y="1150"/>
                        </Array>
                    </mxGeometry>
                </mxCell>
                <mxCell id="69" value="" style="endArrow=classic;html=1;exitX=0.5;exitY=1;exitDx=0;exitDy=0;" edge="1" parent="1" source="63">
                    <mxGeometry width="50" height="50" relative="1" as="geometry">
                        <mxPoint x="720" y="1160" as="sourcePoint"/>
                        <mxPoint x="640" y="1140" as="targetPoint"/>
                    </mxGeometry>
                </mxCell>
                <mxCell id="70" value="" style="endArrow=none;html=1;" edge="1" parent="1">
                    <mxGeometry width="50" height="50" relative="1" as="geometry">
                        <mxPoint x="590" y="1199.4099999999999" as="sourcePoint"/>
                        <mxPoint x="630" y="1150" as="targetPoint"/>
                        <Array as="points">
                            <mxPoint x="630" y="1200"/>
                        </Array>
                    </mxGeometry>
                </mxCell>
                <mxCell id="71" value="or" style="rounded=1;whiteSpace=wrap;html=1;" vertex="1" parent="1">
                    <mxGeometry x="625" y="1140" width="30" height="20" as="geometry"/>
                </mxCell>
            </root>
        </mxGraphModel>
    </diagram>
</mxfile>